<svg width="246" height="25" viewBox="0 0 246 25" fill="none" xmlns="http://www.w3.org/2000/svg">
<path d="M41.5112 1.56952H47.5404C48.5817 1.56952 49.5397 1.66324 50.4144 1.85067C51.3099 2.01728 52.0805 2.29844 52.7261 2.69413C53.3717 3.069 53.8715 3.57925 54.2256 4.22486C54.6005 4.87047 54.7879 5.66186 54.7879 6.59904C54.7879 7.57787 54.4963 8.48381 53.9132 9.31686C53.3301 10.1499 52.4345 10.7226 51.2266 11.035V11.16C52.7261 11.4099 53.8611 11.941 54.6317 12.7532C55.4231 13.5446 55.8188 14.6275 55.8188 16.0021C55.8188 17.0225 55.6209 17.9077 55.2252 18.6574C54.8504 19.4071 54.3089 20.0319 53.6008 20.5318C52.9135 21.0316 52.0909 21.4065 51.1329 21.6564C50.1957 21.8855 49.1648 22 48.0402 22H41.5112V1.56952ZM47.1968 10.0354C48.6338 10.0354 49.6647 9.77503 50.2894 9.25438C50.9142 8.73372 51.2266 7.9944 51.2266 7.03639C51.2266 6.09921 50.8934 5.42236 50.227 5.00584C49.5814 4.58932 48.6025 4.38105 47.2905 4.38105H45.135V10.0354H47.1968ZM47.6653 19.1885C49.1648 19.1885 50.3103 18.9073 51.1017 18.345C51.8931 17.7827 52.2888 16.9184 52.2888 15.7521C52.2888 13.6695 50.7476 12.6282 47.6653 12.6282H45.135V19.1885H47.6653ZM67.3339 1.56952H70.9264V18.9386H80.5169V22H67.3339V1.56952ZM100.467 13.6279L99.748 11.1287C99.4565 10.0458 99.1545 8.93157 98.8421 7.78613C98.5297 6.64069 98.2277 5.50567 97.9362 4.38105H97.8112C97.5196 5.52649 97.2177 6.67193 96.9053 7.81737C96.6137 8.94199 96.3117 10.0458 95.9993 11.1287L95.2808 13.6279H100.467ZM101.279 16.4706H94.4686L92.8754 22H89.1892L95.8119 1.56952H100.06L106.683 22H102.841L101.279 16.4706ZM116.136 1.56952H119.791V10.8476H119.885L127.164 1.56952H131.194L124.915 9.53553L131.881 22H127.851L122.759 12.3783L119.791 16.0333V22H116.136V1.56952ZM141.772 1.56952H154.83V4.63097H145.395V9.84792H153.393V12.9094H145.395V18.9386H155.142V22H141.772V1.56952ZM165.814 1.56952H169.5L174.967 13.0656L176.872 17.4078H176.966C176.883 16.3457 176.779 15.2107 176.654 14.0027C176.529 12.774 176.466 11.5869 176.466 10.4415V1.56952H179.934V22H176.248L170.781 10.4727L168.875 6.16169H168.781C168.865 7.24465 168.969 8.37968 169.094 9.56677C169.219 10.7539 169.281 11.9201 169.281 13.0656V22H165.814V1.56952ZM191.73 1.56952H204.788V4.63097H195.354V9.84792H203.351V12.9094H195.354V18.9386H205.101V22H191.73V1.56952ZM221.02 14.9087L214.304 1.56952H218.146L220.708 7.06763C221.062 7.85903 221.406 8.64001 221.739 9.41058C222.093 10.1603 222.447 10.9517 222.801 11.7848H222.926C223.301 10.9517 223.665 10.1499 224.019 9.37934C224.373 8.60877 224.727 7.82779 225.081 7.03639L227.612 1.56952H231.361L224.644 14.9087V22H221.02V14.9087Z" fill="white"/>
<path d="M15.5174 21.5571L12.1564 24.9181L3.55225 16.3139L11.9682 7.89795L16.3778 12.2807L11.296 17.3356L15.5174 21.5571Z" fill="white"/>
<path d="M12.1497 0.622548L9.10767 3.66455L17.0359 11.5928L20.0779 8.55077L12.1497 0.622548Z" fill="white"/>
<path d="M20.748 9.23612L12.6487 17.3354L16.185 20.8718L24.2843 12.7724L20.748 9.23612Z" fill="white"/>
<path d="M8.44156 4.35385L0 12.7954L2.87089 15.6663L11.3124 7.22474L8.44156 4.35385Z" fill="white"/>
</svg>
